# xmcd
#
# Track frame offsets:
#	150
#	17470
#	29635
#	45289
#	59119
#	73279
#	90542
#	104269
#	122737
#	137537
#	149440
#	164516
#
# Disc length: 2419 seconds
#
# Revision: 5
# Processed by: cddbd v1.5.2PL0 Copyright (c) Steve Scherf et al.
# Submitted via: audiograbber 1.83.01
#
DISCID=ab09710c
DTITLE=Kacey Musgraves - Same Trailer Different Park
DYEAR=2013
DGENRE=Country
TTITLE0=Silver Lining
TTITLE1=My House
TTITLE2=Merry Go 'Round
TTITLE3=Dandelion
TTITLE4=Blowin' Smoke
TTITLE5=I Miss You
TTITLE6=Step Off
TTITLE7=Back On The Map
TTITLE8=Keep It To Yourself
TTITLE9=Stupid
TTITLE10=Follow Your Arrow
TTITLE11=It Is What It Is
EXTD=
EXTT0=
EXTT1=
EXTT2=
EXTT3=
EXTT4=
EXTT5=
EXTT6=
EXTT7=
EXTT8=
EXTT9=
EXTT10=
EXTT11=
PLAYORDER=
